<svg version="1.2" xmlns="http://www.w3.org/2000/svg" viewBox="0 0 47 41" width="47" height="41">
	<title>comilla-apertura-svg</title>
	<style>
		.s0 { fill: #4a6360 } 
	</style>
	<g id="Layer" style="opacity: .9">
		<g id="Layer">
			<path id="Layer" class="s0" d="m12.8 38.7q-2.7 0-4.8-1.2c-2.4-1.5-4.2-4-5.2-7.6-1-3.6-1.1-7.3-0.1-11.2 1.2-4.2 3.3-7.9 6.5-10.8 3.2-2.9 6.8-4.8 10.9-5.6v3.7c-2.9 1.1-5.3 2.8-7.5 5.2-2.2 2.5-3.8 5.1-4.6 7.9-0.3 1.1-0.5 2.4-0.5 3.8 0 1.4 0.4 1.7 1.3 0.9 1.2-0.7 2.5-1.1 3.9-1.1 2.2-0.1 4 0.7 5.6 2.2 1.6 1.6 2.4 3.5 2.4 5.6 0 2.3-0.7 4.2-2.2 5.7-1.5 1.7-3.4 2.5-5.7 2.5zm22.9 0q-2.7 0-4.8-1.2c-2.4-1.5-4.2-4-5.2-7.6-1-3.6-1.1-7.3-0.1-11.2 1.1-4.3 3.3-7.9 6.5-10.9 3.1-2.8 6.8-4.7 10.9-5.5v3.7c-2.9 1.1-5.3 2.8-7.5 5.2-2.2 2.5-3.8 5.1-4.6 7.9-0.3 1.1-0.5 2.4-0.5 3.8 0 1.4 0.4 1.7 1.3 0.9 1.2-0.7 2.5-1.1 3.9-1.1 2.2-0.1 4 0.7 5.6 2.2 1.6 1.6 2.4 3.5 2.4 5.6 0 2.3-0.8 4.2-2.2 5.7-1.6 1.7-3.5 2.5-5.7 2.5z"/>
		</g>
	</g>
</svg>